<?xml version="1.0" encoding="utf-8"?>
<svg version="1.1" id="Layer_1" xmlns="http://www.w3.org/2000/svg" xmlns:xlink="http://www.w3.org/1999/xlink" x="0px" y="0px"
	 viewBox="0 0 2686.688 505.889" style="enable-background:new 0 0 2686.688 505.889;" xml:space="preserve">
<g fill="white">
	<path d="M1400.929,146.114c16.118-9.106,40.85-14.041,41.217-41.839c0.409-30.846-36.902-21.878-29.688,4.104
		c5.297,19.082-2.352,24.892-12.807,36.113c-0.351,0.377-0.375,0.954-0.057,1.359
		C1399.918,146.26,1400.487,146.365,1400.929,146.114z"/>
	<path d="M1285.756,146.114c0.454,0.255,1.016,0.14,1.335-0.263c0.785-1-0.457-1.793-2.582-4.037
		c-25.161-26.502-0.638-34.629-12.863-50.712c-8.176-10.751-27.397-8.814-27.105,13.173
		C1244.907,132.091,1269.693,137.039,1285.756,146.114z"/>
	<path d="M1448.02,114.889c19.564-11.035,47.46-16.181,47.888-48.528c0.469-35.63-42.542-25.243-34.217,4.731
		c6.185,22.273-2.72,29.068-14.947,42.172c-0.351,0.377-0.375,0.954-0.057,1.359C1447,115.023,1447.565,115.141,1448.02,114.889z"/>
	<path d="M1238.667,114.889c0.455,0.252,1.02,0.134,1.333-0.266c0.785-1-0.404-1.745-2.998-4.474
		c-29.48-31.036-0.758-40.295-14.98-59.005c-9.418-12.385-31.577-10.239-31.242,15.217
		C1191.207,98.703,1219.094,103.848,1238.667,114.889z"/>
	<path d="M2511.991,275.944c-64.212,0.265-145.795-3.779-232.633-11.36l-0.34-0.238l-0.137,0.196
		c-6.237-0.545-12.498-1.107-18.784-1.689c52.311-3.386,198.383-8.556,201.34-58.401c1.741-29.462-29.559-29.832-37.678-14.575
		c-6.094,11.442,2.217,27.353,17.594,20.976c13.025-5.4,6.783-19.429-0.866-20.016c-5.048-0.374-11.484,4.168-8.966,5.476
		c0.499,0.257,1.123,0.041,1.404-0.44c0.438-0.751,4.209-3.362,7.71-2.92c5.161,0.655,10.859,11.429-0.081,15.971
		c-13.827,5.74-19.952-8.661-14.947-18.061c7.111-13.351,35.356-13.689,33.744,13.469c-2.865,48.214-150.769,53.294-201.345,56.567
		c-13.259,0.859-8.082,1.048-27.123-0.861c8.765-18.857,5.393-41.861-9.168-55.607c-38.411-36.266-93.804,22.684-119.501,40.409
		c-29.258-4.047-55.43-8.148-77.128-12.072c-12.526-39.093,25.612-58.716,47.165-43.384c15.278,10.865,16.887,37.968-8.873,39.925
		c-20.762,1.576-21.294-20.482-12.578-25.74c5.35-3.231,13.221-1.905,14.253-1.071c0.453,0.364,1.111,0.29,1.47-0.159
		c2.125-2.622-9.878-4.739-16.802-0.56c-10.456,6.314-9.389,31.361,13.817,29.616c27.43-2.082,26.99-31.573,9.926-43.712
		c-22.829-16.237-62.753,4.038-50.701,44.662c-53.686-9.824-43.573-10.133-109.296-31.306
		c8.029-61.449-78.539-134.825-136.259-61.591l1.452,1.481c72.356-54.856,114.771,6.246,120.083,55.431
		c-82.994-25.98-159.753-43.517-229.766-52.519c-1.675-17.737-10.176-33.03-25.37-45.566c-33.149-27.356-89.751-4.893-89.535,38.543
		c-60.319,0.904-123.174,10.06-177.424,35.206c-5.414-17.609-17.331-31.207-33.305-40.569
		c-15.671,9.179-27.808,22.677-33.309,40.568c-54.262-25.15-117.129-34.301-177.423-35.206c0.11-22.139-16.438-43.856-43.058-49.22
		c-38.497-7.753-68.738,23.331-71.846,56.243c-70.009,9.002-146.763,26.538-229.751,52.516
		c5.351-49.523,47.911-110.138,120.083-55.428l1.452-1.481c-57.296-72.696-144.432-0.998-136.26,61.587
		c-65.922,21.238-55.569,21.476-109.308,31.31c17.071-57.538-64.585-67.774-62.534-19.093c0.826,19.685,37.328,25.877,41.184,6.192
		c4.437-22.642-18.699-21.436-22.254-18.577c-1.074,0.865,0.233,2.496,1.313,1.629c1.607-1.298,23.032-4.583,18.89,16.545
		c-3.342,17.04-36.314,11.515-37.045-5.879c-1.922-45.971,75.744-35.39,58.121,19.605c-21.697,3.924-47.868,8.025-77.125,12.071
		c-13.78-9.505-26.457-20.59-34.71-27.211c-72.162-57.853-113.373,0.64-93.959,42.409c-24.726,2.479-225.262-1.728-228.469-55.705
		c-2.153-36.265,46.921-22.94,33.197,1.529c-4.802,8.566-23.054,3.05-20.41-6.308c3.266-11.568,13.012-4.755,13.639-3.68
		c0.695,1.191,2.415,0.258,1.894-0.886c-1.144-2.506-13.653-9.775-17.54,3.995c-3.358,11.893,18.303,18.491,24.244,7.897
		c15.607-27.806-39.471-42.259-37.106-2.428c2.965,50.009,149.625,55.054,201.339,58.401c-6.275,0.58-12.523,1.141-18.749,1.685
		l-0.133-0.19l-0.33,0.231c-86.857,7.584-168.458,11.63-232.682,11.365c-0.576-0.002-1.047,0.464-1.049,1.041
		c-0.011,3.002,112.75,0.15,230.298-10.004l-26.469,18.51c-3.01-3.588-14.942-3.512-15.942-3.052
		c-36.764,17.113-78.315,29.959-115.877,15.836c-3.544-1.338-1.372,31.361,52.329,21.166c-11.474,7.376-27.8,11.722-41.399,18.54
		c-6.658,3.338-29.556,29.395-28.595,31.125c0.411,0.748-0.141,0.418,10.451,0.37c27.012-0.129,27.034,0.307,49.939-16.778
		c7.468-5.57,15.15-11.3,23.206-15.002c-33.815,34.907-20.732,46.453-15.263,55.992c0.488,0.827,1.745,0.626,1.933-0.32
		c6.127-30.779,31.804-52.745,56.632-73.989c0.99-0.847,22.087-18.854,22.424-20.116c1.447-5.503,2.098-9.29,1.193-11.941
		l29.605-20.704c16.074-1.407,32.32-2.932,48.674-4.575c19.282,37.116,93.738,38.536,135.65,35.674
		c-45.72,11.006-85.56,23.319-105.596,43.408c-19.331-2.866-33.658,7.17-32.166,28.062c-1.624,0.318-3.712,0.442-5.422,0.327
		c3.935-10.266-4.42-21.166-14.588-21.166c-13.534,0-14.523,16.511-36.211,16.511c-7.067,0-11.833-1.649-20.693-1.97
		c10.436,23.137,26.106,18.767,43.964,18.024c8.265,2.959,3.085,12.177-2.767,12.234c-8.813-2.487-16.479-0.146-22.224,6.157
		c-14.99,16.447-4.076,28.049-10.19,46.769c-1.009,3.076-1.055,3.44-1.735,6.451c10.312-5.087,16.416-5.193,31.473-5.596
		c38.289-2.949,19.52-40.753,32.664-40.753c6.323,0,4.299,8.683,3.688,12.424c-2.507,15.285-1.577,24.668,19.554,37.511
		c1.028-14.712-1.77-35.979,4.629-39.444c12.676-7.994,16.435-34.676-11.213-33.685c0.098-1.557,0.259-3.499,0.91-5.067
		c18.58,1.93,27.183-17.795,21.91-35.417c41.187-41.099,169.628-49.693,252.094-81.206c16.364-6.254,32.192-12.163,47.515-17.749
		c9.318,15.323,21.968,27.391,36.904,36.341c-15.155,12.732-27.557,25.275-37.417,37.771c-3.453-2.984-9.84-0.772-16.456,1.591
		c-3.376,1.218-48.291,54.744-104.481,53.547c-3.75-0.309,4.197,14.414,21.584,14.414c9.632,0,21.322-3.954,34.804-11.768
		c-19.918,25.565-35.308,18.628-49.906,68.966c-0.111,0.385,0.009,0.803,0.309,1.071c0.64,0.57,30.933-9.797,35.847-14.836
		c12.032-12.337,20.344-30.613,32.629-42.484c-20.343,44.122-4.193,50.695,4.137,57.888c0.725,0.628,1.856,0.019,1.72-0.938
		c-7.824-55.103,52.571-106.203,41.167-125.796c9.942-12.664,22.524-25.382,37.966-38.303
		c38.305,21.978,103.917,30.026,194.344-14.339c-28.142,35.863-41.633,81.463-38.956,82.164c0.545,0.146,1.126-0.177,1.276-0.747
		c8.594-32.9,23.072-60.567,41.575-83.354c0.141-0.071,0.73-0.363,1.569-0.786c0.64-1.018,1.296-1.955,2.528-3.338l1.232-0.751
		c0.125-0.382,0.172-0.533,0.287-0.858c6.205-6.234,18.374-14.754,35.173-23.693c39.663,22.01,100.214,15.59,111.841,11.625
		c26.08-8.795,59.136-21.091,100.474-21.291l0,0.002c1.425,0.058,2.843,0.137,4.256,0.231
		c-17.555,1.357-59.455,15.348-73.221,47.279c-12.739,15.716-30.932,29.17-44.161,32.748c-11.578-14.572-28.596-17.692-42.115-1.59
		c-1.42-0.925-2.97-2.262-4.12-3.54c14.283-6.628,11.38-32.037-10.503-29.572c-21.314-0.641-26.296-14.615-36.206-24.952
		c-8.355,23.127,4.132,30.278,19.017,43.548c3.879,7.882-6.277,10.875-10.503,6.854c-11.541-19.881-36.047-8.623-42.908-0.096
		c-10.837,14.016-14.298,13.312-22.942,18.951c29.79,9.577,32.493,45.241,69.785,12.189c4.415-3.284,8.211-2.21,9.404,0.435
		c1.947,4.312-3.067,7.401-6.88,10.236c-12.506,9.28-18.278,16.675-12.073,40.544c10.484-9.378,22.363-25.239,29.675-25.239
		c0.15,0,2.81,0.525,4.792,0.525c14.601,0,30.333-15.514,11.712-32.37c1.154-1.049,2.621-2.332,4.18-3.005
		c12.112,14.463,32.343,6.068,40.848-11.072c12.443-3.574,28.333-14.842,40.873-28.867c-10.845,34.524,9.443,75.898,45.508,75.898
		c19.316,0,38.106-11.908,43.633-31.018c7.8-26.982-16.185-58.756-46.836-38.199c-25.944,17.401-5.987,44.762,10.087,42.721
		c10.652-1.354,20.896-13.13,17.277-13.954c-0.562-0.128-1.121,0.226-1.248,0.79c-0.418,1.857-7.588,9.983-16.293,11.089
		c-14.098,1.795-32.591-22.861-8.657-38.911c29.267-19.627,50.829,11.105,43.664,35.882c-7.24,25.036-38.173,36.428-60.246,25.185
		c-24.925-12.695-34.247-47.552-22.967-74.102c0.314-0.389,0.554-0.604,0.484-1.121c11.882-26.354,39.344-36.748,60.351-43.586
		c12.276-2.853,26.158-2.756,41.864,1.599c7.937,21.249,16.422,29.295,29.624,46.528c13.23-17.27,21.676-25.249,29.624-46.527
		c47.984-13.307,90.669,16.367,102.22,41.98c-0.074,0.522,0.171,0.742,0.491,1.139c18.147,42.738-16.672,93.337-59.899,74.592
		c-46.352-20.103-20.292-88.82,20.345-61.568c23.967,16.072,5.287,40.686-8.659,38.911c-8.705-1.106-15.875-9.232-16.293-11.089
		c-0.128-0.564-0.688-0.919-1.25-0.79c-3.632,0.828,6.639,12.602,17.277,13.954c16.098,2.044,36.018-25.333,10.088-42.721
		c-30.655-20.56-54.634,11.221-46.836,38.199c5.527,19.11,24.318,31.018,43.633,31.018c36.097,0,56.334-41.436,45.516-75.889
		c12.539,14.022,28.424,25.286,40.865,28.859c8.434,16.991,28.677,25.606,40.848,11.072c1.559,0.673,3.026,1.955,4.18,3.005
		c-20.474,18.533,0.621,35.116,15.398,31.991c7.027-1.945,19.834,15.302,30.781,25.094c8.167-31.411-5.866-34.585-17.645-44.92
		c-3.375-3.88-1.319-8.335,2.8-8.335c9.58,0,22.197,29.67,48.589,7.742c11.169-10.263,15.638-14.402,26.491-17.891
		c-8.684-5.666-12.114-4.946-22.942-18.951c-6.723-8.355-31.291-19.916-42.908,0.096c-4.21,4.007-14.393,1.05-10.503-6.854
		c14.671-13.079,27.424-20.272,19.017-43.548c-12.368,12.9-14.634,24.789-39.046,24.789c-19.356,0-21.24,23.435-7.664,29.736
		c-1.15,1.278-2.7,2.615-4.12,3.54c-13.568-16.161-30.608-12.892-42.115,1.59c-13.226-3.577-31.413-17.025-44.151-32.736
		c-11.369-26.386-46.174-45.201-73.229-47.291c1.412-0.094,2.829-0.173,4.253-0.231v-0.002
		c69.439,0.337,79.469,25.319,139.992,25.319c24.261,0,51.205-3.933,72.327-15.656c16.804,8.942,28.977,17.463,35.182,23.697
		c0.096,0.271,0.198,0.585,0.287,0.858l1.232,0.751c1.239,1.391,1.886,2.316,2.528,3.338c0.824,0.415,1.482,0.743,1.554,0.779
		c18.506,22.789,32.986,50.458,41.581,83.361c0.147,0.568,0.73,0.893,1.276,0.747c2.418-0.633-9.875-45.108-38.963-82.171
		c90.387,44.35,156.013,36.345,194.353,14.35c15.439,12.919,28.019,25.635,37.96,38.297c-1.443,2.477-1.905,6.278-2.272,10.823
		c-0.101,1.299,13.921,25.415,14.501,26.415c16.395,28.266,33.348,57.492,28.937,88.56c-0.133,0.945,0.98,1.574,1.72,0.938
		c8.328-7.192,24.481-13.764,4.137-57.888c6.375,6.16,11.725,14.109,16.928,21.836c15.979,23.75,16.274,23.361,41.567,32.37
		c6.554,2.336,11.05,4.68,10.29,2.042c-14.589-50.306-30.045-43.475-49.906-68.966c47.772,27.689,60.112-2.952,56.388-2.645
		c-56.076,1.195-101.253-52.382-104.48-53.547c-8.498-3.034-13.436-4.199-16.454-1.592c-9.858-12.493-22.259-25.036-37.411-37.765
		c14.873-8.911,27.551-20.957,36.907-36.341c67.085,24.456,62.153,26.076,156.791,47.385
		c60.52,13.625,117.702,26.514,142.808,51.568c-5.264,17.593,3.311,37.348,21.91,35.415c0.651,1.568,0.812,3.51,0.91,5.067
		c-27.757-0.995-23.817,25.737-11.213,33.685c6.395,3.463,3.594,24.624,4.629,39.444l1.463-0.891
		c26.277-16.042,18.247-29.813,17.135-43.64c0.378-7.018,8.762-7.757,10.194,1.117c3.714,49.579,31.794,26.605,56.621,38.858
		l1.964,0.969c-0.677-2.994-0.715-3.325-1.735-6.451c-6.284-19.241,5.029-30.07-10.19-46.769c-5.74-6.298-13.4-8.648-22.224-6.157
		c-5.853-0.057-11.033-9.275-2.767-12.234c17.887,0.745,33.526,5.118,43.964-18.024c-8.855,0.321-13.627,1.97-20.691,1.97
		c-21.67,0-22.708-16.511-36.211-16.511c-10.131,0-18.537,10.863-14.588,21.166c-1.709,0.115-3.797-0.009-5.422-0.327
		c1.526-21.353-13.447-30.838-32.167-28.062c-20.036-20.09-59.877-32.402-105.598-43.408c41.742,2.851,116.344,1.498,135.654-35.674
		c16.371,1.645,32.635,3.172,48.726,4.58l29.561,20.673c-7.403,21.354,69.261,50.929,80.238,106.073
		c0.188,0.948,1.45,1.147,1.934,0.32c5.467-9.533,18.554-21.083-15.263-55.992c8.056,3.701,15.737,9.432,23.206,15.002
		c22.951,17.12,23.083,16.65,49.939,16.778c10.592,0.048,10.04,0.378,10.451-0.37c0.974-1.753-21.962-27.8-28.595-31.125
		c-13.6-6.818-29.923-11.162-41.399-18.54c53.352,10.129,56.144-22.605,52.329-21.166c-37.534,14.113-79.057,1.303-115.876-15.836
		c-1-0.46-12.904-0.531-15.923,3.031l-26.433-18.485c119.102,10.287,230.26,12.907,230.249,10
		C2513.039,276.421,2512.583,275.944,2511.991,275.944z M2220.28,205.953c14.084,13.294,17.185,35.683,8.391,53.865
		c-40.48-4.082-82.931-9.007-123.41-14.559C2128.74,228.735,2183.527,171.25,2220.28,205.953z M2099.635,246.589
		c-15.824,10.566-32.813,18.594-46.185,15.216c-13.034-3.291-22.82-14.034-27.582-26.781
		C2046.805,238.791,2071.803,242.714,2099.635,246.589z M1855.393,274.661c-37.163-29.866-89.493-60.863-159.627-94.765
		c54.074,13.474,117.921,32.939,194.71,60.679C1882.917,254.542,1870.93,266.07,1855.393,274.661z M1853.401,275.738
		c-46.104,24.285-126.961,23.729-193.896-16.385c-0.677-0.788-1.367-1.565-2.056-2.344c-3.566-8.42-13.104-18.287-26.747-28.133
		c16.176-12.272,30.085-36.979,35.38-56.005C1709.771,182.64,1809.825,240.873,1853.401,275.738z M1343.344,210.608
		c-10.811-7.447-22.316-13.69-34.466-18.734c0.194-5.704,0.985-11.384,2.481-16.926c11.382,5.393,22.058,11.365,31.986,17.911
		c9.927-6.545,20.603-12.517,31.983-17.909c1.496,5.542,2.287,11.221,2.481,16.925
		C1365.659,196.918,1354.155,203.16,1343.344,210.608z M1029.256,256.992c-0.697,0.787-1.394,1.573-2.079,2.37
		c-66.919,40.094-147.757,40.674-193.885,16.373c40.123-32.101,141.372-92.593,187.311-102.864
		c5.289,19.005,19.198,43.731,35.386,56.01C1042.359,238.718,1032.827,248.577,1029.256,256.992z M831.3,274.659
		c-15.535-8.592-27.522-20.121-35.08-34.087c76.789-27.74,140.634-47.204,194.708-60.678
		C920.794,213.796,868.463,244.792,831.3,274.659z M1343.35,220.085c11.028-6.975,22.48-12.403,34.067-16.57
		c-0.881,8.912-3.035,17.69-6.022,25.899c-9.867,2.81-19.261,6.565-28.052,11.224c-8.792-4.659-18.185-8.414-28.051-11.224
		c-2.987-8.21-5.142-16.99-6.023-25.904C1320.861,207.679,1332.318,213.108,1343.35,220.085z M1898.957,198.614
		c1.179,13.951-0.703,26.593-7.518,40.081c-85.582-30.955-159.867-53.408-224.812-67.944c2.284-8.999,3.001-17.141,2.519-24.783
		C1739.157,155,1815.933,172.58,1898.957,198.614z M1559.158,152.923c-1.536-4.24-2.657-8.969-2.922-14.046
		c22.083-0.261,45.06,0.567,68.904,2.476c2.109,7.503,0.338,14.301-4.612,20.123
		C1598.645,157.606,1578.444,154.827,1559.158,152.923z M1618.749,163.388c-13.705,13.498-47.125,19.924-58.714-8.2
		C1577.995,156.999,1597.454,159.651,1618.749,163.388z M1627.35,141.533c12.977,1.072,26.208,2.462,39.693,4.172
		c0.606,7.872-0.164,16.115-2.328,24.617c-14.38-3.193-28.299-5.995-41.782-8.414
		C1627.523,155.939,1629.194,148.823,1627.35,141.533z M1642.277,99.889c14.556,12.01,22.75,26.965,24.585,43.689
		c-13.631-1.722-27.004-3.118-40.118-4.19c-12.236-39.668-50.96-10.765-45.713-8.402c0.527,0.237,1.145,0.004,1.383-0.523
		c0.997-2.219,12.004-10.545,23.104-9.704c8.847,0.673,15.222,6.875,18.975,18.445c-23.632-1.869-46.413-2.677-68.32-2.417
		C1555.988,95.011,1610.493,73.662,1642.277,99.889z M1554.136,138.909c0.251,4.955,1.283,9.592,2.723,13.787
		c-45.902-4.381-81.957-3.268-114.169-0.927C1479.198,143.113,1516.618,139.471,1554.136,138.909z M1438.552,152.777l0.106,1.389
		c33.345-2.551,70.764-3.916,119.032,0.79c12.345,31.586,49.748,24.021,63.619,8.885c13.515,2.41,27.764,5.255,42.836,8.598
		c-5.197,18.556-19.129,43.175-35.228,55.17c-68.454-48.152-172.62-67.28-249.073-36.575c-0.244-5.72-1.075-11.415-2.602-16.975
		C1395.864,165.402,1416.353,158.289,1438.552,152.777z M1343.344,133.853c14.976,9.102,26.255,22.106,31.401,39.065
		c-11.146,5.265-21.63,11.079-31.401,17.441c-9.772-6.362-20.256-12.176-31.402-17.441
		C1317.08,155.986,1328.352,142.961,1343.344,133.853z M1306.84,191.032c-78.429-31.5-183.233-9.731-249.066,36.581
		c-16.123-12.011-30.051-36.669-35.234-55.175c15.072-3.343,29.321-6.188,42.836-8.598c13.7,14.95,51.144,23.029,63.619-8.885
		c48.268-4.706,85.687-3.341,119.032-0.79l0.106-1.39c22.199,5.512,42.688,12.624,61.31,21.28
		C1307.916,179.617,1307.084,185.311,1306.84,191.032z M1019.643,145.706c13.485-1.71,26.716-3.1,39.693-4.172
		c-1.845,7.29-0.174,14.406,4.418,20.375c-13.483,2.419-27.402,5.221-41.782,8.414
		C1019.807,161.82,1019.036,153.577,1019.643,145.706z M1066.156,161.476c-5.015-5.899-6.698-12.724-4.612-20.123
		c23.844-1.908,46.821-2.737,68.904-2.476c-0.265,5.077-1.385,9.807-2.922,14.046
		C1107.056,154.944,1086.766,157.832,1066.156,161.476z M1126.651,155.188c-11.428,27.732-44.711,21.991-58.714,8.2
		C1089.231,159.651,1108.689,156.999,1126.651,155.188z M1244.004,151.77c-32.214-2.342-68.272-3.455-114.178,0.926
		c1.44-4.195,2.471-8.832,2.723-13.787C1170.069,139.47,1207.492,143.112,1244.004,151.77z M1130.511,136.786
		c-21.907-0.259-44.688,0.548-68.32,2.417c10.671-32.892,40.307-12.683,42.079-8.74c0.566,1.257,2.474,0.404,1.905-0.86
		c-2.55-5.665-35.124-26.235-46.235,9.784c-13.114,1.072-26.487,2.468-40.118,4.191
		C1027.963,69.42,1130.789,74.405,1130.511,136.786z M1017.539,145.968c-0.483,7.647,0.236,15.788,2.519,24.782
		c-64.942,14.535-139.223,36.987-224.8,67.94c-6.791-13.442-8.699-26.07-7.514-40.08
		C870.761,172.58,947.532,155.001,1017.539,145.968z M660.817,235.025c-4.776,12.782-14.581,23.497-27.582,26.78
		c-13.372,3.378-30.361-4.65-46.184-15.215C614.884,242.714,639.88,238.792,660.817,235.025z M555.292,224.863
		c7.311,6.041,16.392,13.54,26.136,20.397c-40.465,5.55-82.917,10.475-123.411,14.559
		C439.362,221.249,475.268,158.698,555.292,224.863z M605.875,294.548c-1.541-0.157-121.28,14.422-146.834-32.733
		c40.516-4.096,83.539-9.083,124.921-14.797c13.667,9.338,33.75,20.859,49.785,16.816c14.127-3.567,24.644-15.38,29.45-29.24
		c54.863-9.987,45.202-10.463,110.334-31.46c2.068,13.836,6.62,26.871,13.414,38.573
		C703.876,272.027,734.506,264.775,605.875,294.548z M1306.514,227.199c-0.256-1.275-24.34-3.66-27.891-3.66
		c-41.476,0-75.585,12.639-101.578,21.405c-9.098,3.1-68.401,10.879-108.943-10.815c67.877-35.407,164.414-57.161,239.025-31.368
		c0.794,8.919,2.839,17.715,5.723,25.973C1310.76,228.177,1308.645,227.671,1306.514,227.199z M1343.344,274.244
		c-11.425-14.815-19.435-22.605-27.136-42.393c9.548,2.828,18.632,6.566,27.136,11.162c8.504-4.596,17.588-8.334,27.136-11.162
		C1362.811,251.556,1354.94,259.206,1343.344,274.244z M1509.638,244.944c-1.002-0.338-74.321-26.587-101.767-21.367
		c-2.396,0.106-27.377,2.054-27.693,3.621c-2.133,0.472-4.251,0.979-6.344,1.537c2.884-8.257,4.929-17.051,5.724-25.969
		c75.519-26.115,172.493-3.349,239.032,31.359C1579.686,254.947,1521.049,248.832,1509.638,244.944z M2080.811,294.548
		c-126.159-29.202-95.947-21.771-181.059-52.837c6.795-11.702,11.347-24.737,13.417-38.574
		c65.18,21.013,55.502,21.478,110.322,31.457c6.697,19.312,22.343,30.077,36.483,30.077c13.245-0.001,28.587-7.974,42.752-17.652
		c41.392,5.715,84.409,10.701,124.921,14.797C2202.084,308.991,2083.13,294.31,2080.811,294.548z"/>
	<path d="M1701.015,355.469c-48.985,12.78-45.586,39.748-43.84,40.8c9.508,5.727,38.135-0.343,45.131-39.605
		C1702.441,355.926,1701.763,355.276,1701.015,355.469z"/>
	<path d="M984.378,356.665c8.342,46.805,45.409,43.768,45.637,38.763C1031.614,364.814,983.757,353.082,984.378,356.665z"/>
	<path d="M1706.509,383.986c-26.064,47.747-18.669,79.964,1.279,78.008C1737.172,460.091,1723.786,413.636,1706.509,383.986z"/>
	<path d="M980.175,383.986c-23.765,40.771-25.778,78.076,0.4,78.09C1000.305,462.073,1004.227,427.983,980.175,383.986z"/>
	<path d="M1711.557,357.232c8.278,46.505,45.354,44.073,45.631,38.768C1758.803,365.232,1710.946,353.837,1711.557,357.232z"/>
	<path d="M973.836,356.035c-30.395,7.935-45.313,21.382-44.336,39.965c0.086,1.782,5.682,2.691,8.369,2.69
		C966.789,398.693,979.103,354.679,973.836,356.035z"/>
	<path d="M2516.934,282.294c-1,0.918,5.287,47.481,36.062,48.273c1.753,0,5.723-8.545,1.56-20.019
		C2546.639,288.738,2518.148,281.17,2516.934,282.294z"/>
	<path d="M132.133,310.545c-4.145,11.424-0.197,20.024,1.532,20.02c30.087-0.071,37.093-47.347,36.09-48.274
		C168.741,281.353,140.223,288.268,132.133,310.545z"/>
	<path d="M2545.469,279.989c44.065,28.73,78.278,25.617,77.872,4.805C2623.739,254.395,2574.762,265.853,2545.469,279.989z"/>
	<path d="M141.219,279.987c-43.549-21.03-78.189-18.699-77.872,4.803C62.949,305.465,96.909,308.854,141.219,279.987z"/>
	<path d="M2519.189,272.868c39.402-3.88,48.053-31.818,43.008-41.901c-0.646-1.294-27.204-8.267-44.097,40.519
		C2517.843,272.224,2518.469,272.961,2519.189,272.868z"/>
	<path d="M168.586,271.487c-16.532-47.74-43.174-42.358-44.098-40.517c-1.98,3.955-2.011,11.503,2.375,19.451
		C137.766,270.172,170.099,275.886,168.586,271.487z"/>
</g>
</svg>
